*
G04 Mass Parameters ***
*
G04 Image ***
*
%IND:\AFILES\STUDENT\TEMP\APDU\PROJECT.TOP*%
%ICAS*%
%MOIN*%
%IPPOS*%
%ASAXBY*%
G74*%FSLAN2X34Y34*%
*
G04 Aperture Definitions ***
*
%ADD10C,0.1378*%
%ADD11R,0.0500X0.0500*%
%ADD12O,0.0190X0.0410*%
%ADD13R,0.0190X0.0410*%
%ADD14C,0.0580*%
%ADD15R,0.0580X0.0580*%
%ADD16C,0.0010*%
%ADD17C,0.0500*%
%ADD18C,0.0190*%
*
G04 Plot Data ***
*
G54D16*
G01X-0013638Y0007756D02*
X-0015606D01*
Y0005394D01*
X-0013638D01*
Y0007756D01*
X-0018638D02*
X-0020606D01*
Y0005394D01*
X-0018638D01*
Y0007756D01*
G54D18*
G01X-0022160Y0006000D02*
Y0004000D01*
X-0020000D01*
X-0019425Y0004575D01*
Y0005787D01*
X-0025000Y0007000D02*
X-0024000D01*
X-0023500Y0007500D01*
X-0022750D01*
X-0022160Y0006910D01*
Y0006000D01*
X-0014819Y0005787D02*
Y0005181D01*
X-0015500Y0004500D01*
Y0003250D01*
X-0015250Y0003000D01*
X-0014000D01*
X-0019425Y0005787D02*
Y0004575D01*
X-0014750Y0003750D02*
X-0014000Y0003000D01*
X-0010000Y0005000D02*
X-0011000D01*
X-0013000Y0008750D02*
Y0010000D01*
Y0008750D01*
X-0016250Y0007500D02*
Y0005250D01*
X-0015500Y0004500D01*
X-0014819Y0005181D01*
Y0005787D01*
X-0020000Y0011000D02*
Y0010250D01*
X-0019250Y0009500D01*
X-0016000D02*
X-0015160Y0010340D01*
Y0010393D01*
Y0011000D01*
X-0016160Y0003000D02*
X-0017500Y0004340D01*
Y0007750D01*
X-0019101Y0008250D02*
X-0019425Y0007925D01*
Y0007362D01*
X-0010000Y0006000D02*
X-0011000D01*
X-0011500Y0008090D02*
X-0012160Y0008750D01*
Y0010000D01*
X-0013160Y0003000D02*
Y0002340D01*
X-0013750Y0001750D01*
X-0015000D01*
X-0016160Y0002910D01*
Y0003000D01*
X-0017000D02*
X-0018250Y0001750D01*
X-0019500D01*
X-0020250Y0002500D01*
Y0004750D02*
X-0019819Y0005181D01*
Y0005787D01*
X-0014032D02*
Y0005282D01*
X-0012250Y0003500D01*
X-0019500Y0003250D02*
X-0022250D01*
X-0023000Y0004000D01*
Y0006000D02*
Y0006750D01*
X-0015319Y0008750D02*
X-0014819Y0008250D01*
Y0007362D01*
X-0014425D02*
Y0009675D01*
X-0015160Y0010393D01*
Y0011000D01*
X-0013160D01*
X-0012160Y0010000D01*
X-0023000Y0006000D02*
Y0006750D01*
X-0021500Y0008250D02*
X-0020250D01*
X-0019819Y0007819D01*
Y0007362D01*
X-0019032Y0005787D02*
Y0005282D01*
X-0018750Y0005000D01*
Y0004000D01*
X-0019500Y0003250D01*
X-0022250D01*
X-0023000Y0004000D01*
Y0006000D02*
X-0025000D01*
X-0017000Y0003000D02*
X-0018250Y0004250D01*
X-0018245Y0010085D01*
X-0019160Y0011000D01*
X-0011000Y0003000D02*
X-0011750Y0003750D01*
Y0006250D01*
X-0011000Y0007000D01*
X-0010000D01*
X-0011000Y0003000D02*
X-0013160D01*
X-0025000Y0005000D02*
X-0024000D01*
X-0023000Y0004000D01*
X-0018250Y0010090D02*
X-0019160Y0011000D01*
X-0010160Y0003000D02*
Y0003160D01*
X-0011000Y0004000D01*
X-0014656Y0004519D02*
X-0014425Y0004750D01*
Y0005787D01*
X-0016000Y0011000D02*
X-0017000Y0010000D01*
Y0005000D01*
X-0016500Y0004500D01*
X-0014656Y0004519D02*
X-0014425Y0004750D01*
Y0005787D01*
G54D10*
X-0028000Y0011000D03*
X-0007000D03*
Y0002000D03*
X-0028000D03*
G54D11*
X-0013000Y0010000D03*
X-0012160D03*
X-0016000Y0011000D03*
X-0015160D03*
X-0011000Y0003000D03*
X-0010160D03*
X-0014000D03*
X-0013160D03*
X-0020000Y0011000D03*
X-0019160D03*
X-0023000Y0006000D03*
X-0022160D03*
X-0023000Y0004000D03*
X-0022160D03*
X-0017000Y0003000D03*
X-0016160D03*
G54D12*
X-0014819Y0005787D03*
X-0014425D03*
X-0014032D03*
Y0007362D03*
X-0014425D03*
X-0014819D03*
X-0015213D03*
X-0019819Y0005787D03*
X-0019425D03*
X-0019032D03*
Y0007362D03*
X-0019425D03*
X-0019819D03*
X-0020213D03*
G54D13*
X-0015213Y0005787D03*
X-0020213D03*
G54D14*
X-0010000Y0006000D03*
Y0005000D03*
X-0025000Y0006000D03*
Y0007000D03*
G54D15*
X-0010000D03*
X-0025000Y0005000D03*
G54D17*
X-0019425Y0004575D03*
X-0014750Y0003750D03*
X-0011000Y0005000D03*
X-0013000Y0008750D03*
X-0016250Y0007500D03*
X-0019250Y0009500D03*
X-0016000D03*
X-0017500Y0007750D03*
X-0019101Y0008250D03*
X-0011000Y0006000D03*
X-0011500Y0008090D03*
X-0020250Y0002500D03*
Y0004750D03*
X-0012250Y0003500D03*
X-0019500Y0003250D03*
X-0015319Y0008750D03*
X-0023000Y0006750D03*
X-0021500Y0008250D03*
X-0011000Y0004000D03*
X-0016500Y0004500D03*
X-0014656Y0004519D03*
M02*
