*
G04 Mass Parameters ***
*
G04 Image ***
*
%IND:\AFILES\STUDENT\TEMP\APDU\PROJECT.AST*%
%ICAS*%
%MOIN*%
%IPPOS*%
%ASAXBY*%
G74*%FSLAN2X34Y34*%
*
G04 Aperture Definitions ***
*
%ADD10C,0.1378*%
%ADD11R,0.0500X0.0500*%
%ADD12O,0.0190X0.0410*%
%ADD13R,0.0190X0.0410*%
%ADD14C,0.0580*%
%ADD15R,0.0580X0.0580*%
%ADD16C,0.0010*%
%ADD17C,0.0500*%
%ADD18C,0.0190*%
%ADD19C,0.0780*%
%ADD20R,0.0780X0.0780*%
%ADD21C,0.0500*%
%ADD22C,0.0750*%
%ADD23C,0.0550*%
%ADD24C,0.0080*%
%ADD25C,0.0060*%
%ADD26C,0.0079*%
%ADD27C,0.0067*%
*
G04 Plot Data ***
*
G54D21*
G01X-0029500Y0012250D02*
Y0000500D01*
X-0005500D01*
Y0012250D01*
X-0029500D01*
G54D24*
G01X-0026355Y0005779D02*
Y0005890D01*
Y0005834D02*
X-0026022D01*
X-0026077Y0005890D01*
X-0026355Y0006133D02*
X-0026022Y0006300D01*
Y0006133D02*
X-0026355Y0006300D01*
X-0008867Y0005762D02*
Y0005985D01*
X-0008645Y0005762D01*
X-0008589D01*
X-0008534Y0005790D01*
Y0005957D01*
X-0008589Y0005985D01*
X-0008867Y0006172D02*
X-0008534Y0006339D01*
Y0006172D02*
X-0008867Y0006339D01*
X-0005750Y0005000D02*
X-0008250D01*
X-0005750Y0007000D02*
X-0008250D01*
X-0008300Y0004450D02*
Y0005000D01*
Y0007000D01*
Y0007550D01*
X-0009300D01*
Y0004450D01*
X-0008300D01*
X-0029250Y0007000D02*
X-0026750D01*
X-0029250Y0005000D02*
X-0026750D01*
X-0026700Y0007550D02*
Y0007000D01*
Y0005000D01*
Y0004450D01*
X-0025700D01*
Y0007550D01*
X-0026700D01*
G54D25*
G01X-0022654Y0004333D02*
X-0022877D01*
X-0022654Y0004555D01*
Y0004610D01*
X-0022682Y0004666D01*
X-0022849D01*
X-0022877Y0004610D01*
X-0023024Y0004388D02*
X-0023052Y0004333D01*
X-0023219D01*
X-0023247Y0004388D01*
Y0004610D01*
X-0023219Y0004666D01*
X-0023052D01*
X-0023024Y0004610D01*
X-0022137Y0003332D02*
Y0003499D01*
X-0022165Y0003555D01*
X-0022331D01*
Y0003332D01*
X-0022618D02*
X-0022673Y0003388D01*
X-0022701Y0003444D01*
Y0003555D01*
X-0022673Y0003610D01*
X-0022618Y0003666D01*
X-0022562D01*
X-0022507Y0003610D01*
X-0022479Y0003555D01*
Y0003444D01*
X-0022507Y0003388D01*
X-0022562Y0003332D01*
X-0022618D01*
X-0022988D02*
X-0023043Y0003388D01*
X-0023071Y0003444D01*
Y0003555D01*
X-0023043Y0003610D01*
X-0022988Y0003666D01*
X-0022932D01*
X-0022877Y0003610D01*
X-0022849Y0003555D01*
Y0003444D01*
X-0022877Y0003388D01*
X-0022932Y0003332D01*
X-0022988D01*
X-0023219D02*
X-0023330D01*
X-0023274D02*
Y0003666D01*
X-0023330Y0003610D01*
X-0010877Y0003388D02*
X-0010821Y0003333D01*
X-0010710D01*
X-0010654Y0003388D01*
Y0003444D01*
X-0010766Y0003555D01*
X-0010654Y0003666D01*
X-0010877D01*
X-0011108Y0003499D02*
X-0011024Y0003333D01*
X-0011247Y0003499D02*
X-0011080D01*
X-0011024Y0003555D01*
Y0003610D01*
X-0011080Y0003666D01*
X-0011247D01*
Y0003333D01*
X-0010479Y0002332D02*
X-0010646Y0002499D01*
X-0010479Y0002666D01*
X-0010701D02*
Y0002332D01*
X-0010988D02*
X-0011043Y0002388D01*
X-0011071Y0002444D01*
Y0002555D01*
X-0011043Y0002610D01*
X-0010988Y0002666D01*
X-0010932D01*
X-0010877Y0002610D01*
X-0010849Y0002555D01*
Y0002444D01*
X-0010877Y0002388D01*
X-0010932Y0002332D01*
X-0010988D01*
X-0011219D02*
X-0011330D01*
X-0011274D02*
Y0002666D01*
X-0011330Y0002610D01*
X-0015654Y0011444D02*
X-0015877D01*
X-0015766Y0011666D01*
X-0015710D01*
Y0011333D01*
X-0016108Y0011499D02*
X-0016024Y0011333D01*
X-0016247Y0011499D02*
X-0016080D01*
X-0016024Y0011555D01*
Y0011610D01*
X-0016080Y0011666D01*
X-0016247D01*
Y0011333D01*
X-0015423Y0010332D02*
X-0015590Y0010499D01*
X-0015423Y0010666D01*
X-0015646D02*
Y0010332D01*
X-0015932D02*
X-0015988Y0010388D01*
X-0016016Y0010444D01*
Y0010555D01*
X-0015988Y0010610D01*
X-0015932Y0010666D01*
X-0015877D01*
X-0015821Y0010610D01*
X-0015793Y0010555D01*
Y0010444D01*
X-0015821Y0010388D01*
X-0015877Y0010332D01*
X-0015932D01*
X-0016163D02*
X-0016386D01*
X-0016163Y0010555D01*
Y0010610D01*
X-0016191Y0010666D01*
X-0016358D01*
X-0016386Y0010610D01*
X-0012877Y0010388D02*
X-0012849Y0010333D01*
X-0012682D01*
X-0012654Y0010388D01*
Y0010499D01*
X-0012710Y0010555D01*
X-0012877D01*
Y0010666D01*
X-0012654D01*
X-0013108Y0010499D02*
X-0013024Y0010333D01*
X-0013247Y0010499D02*
X-0013080D01*
X-0013024Y0010555D01*
Y0010610D01*
X-0013080Y0010666D01*
X-0013247D01*
Y0010333D01*
X-0012479Y0009332D02*
X-0012646Y0009499D01*
X-0012479Y0009666D01*
X-0012701D02*
Y0009332D01*
X-0012988D02*
X-0013043Y0009388D01*
X-0013071Y0009444D01*
Y0009555D01*
X-0013043Y0009610D01*
X-0012988Y0009666D01*
X-0012932D01*
X-0012877Y0009610D01*
X-0012849Y0009555D01*
Y0009444D01*
X-0012877Y0009388D01*
X-0012932Y0009332D01*
X-0012988D01*
X-0013219D02*
X-0013330D01*
X-0013274D02*
Y0009666D01*
X-0013330Y0009610D01*
X-0016710Y0003333D02*
X-0016821D01*
X-0016766D02*
Y0003666D01*
X-0016821Y0003610D01*
X-0017024Y0003388D02*
X-0017052Y0003333D01*
X-0017219D01*
X-0017247Y0003388D01*
Y0003610D01*
X-0017219Y0003666D01*
X-0017052D01*
X-0017024Y0003610D01*
X-0016849Y0002666D02*
Y0002388D01*
X-0016877Y0002332D01*
X-0017043D01*
X-0017071Y0002388D01*
Y0002666D01*
X-0017219Y0002332D02*
X-0017330D01*
X-0017274D02*
Y0002666D01*
X-0017330Y0002610D01*
X-0019710Y0011333D02*
X-0019821D01*
X-0019766D02*
Y0011666D01*
X-0019821Y0011610D01*
X-0020108Y0011499D02*
X-0020024Y0011333D01*
X-0020247Y0011499D02*
X-0020080D01*
X-0020024Y0011555D01*
Y0011610D01*
X-0020080Y0011666D01*
X-0020247D01*
Y0011333D01*
X-0019220Y0010499D02*
X-0019109D01*
Y0010388D01*
X-0019137Y0010332D01*
X-0019303D01*
X-0019331Y0010388D01*
Y0010610D01*
X-0019303Y0010666D01*
X-0019137D01*
X-0019109Y0010610D01*
X-0019535Y0010499D02*
X-0019701D01*
X-0019479Y0010332D02*
X-0019701D01*
Y0010666D01*
X-0019479D01*
X-0019849Y0010332D02*
Y0010666D01*
X-0019905Y0010610D01*
X-0019960Y0010499D01*
X-0020016Y0010610D01*
X-0020071Y0010666D01*
Y0010332D01*
X-0020219D02*
X-0020330D01*
X-0020274D02*
Y0010666D01*
X-0020330Y0010610D01*
X-0022877Y0006388D02*
X-0022821Y0006333D01*
X-0022710D01*
X-0022654Y0006388D01*
Y0006444D01*
X-0022766Y0006555D01*
X-0022654Y0006666D01*
X-0022877D01*
X-0023024Y0006388D02*
X-0023052Y0006333D01*
X-0023219D01*
X-0023247Y0006388D01*
Y0006610D01*
X-0023219Y0006666D01*
X-0023052D01*
X-0023024Y0006610D01*
X-0022137Y0005332D02*
Y0005499D01*
X-0022165Y0005555D01*
X-0022331D01*
Y0005332D01*
X-0022618D02*
X-0022673Y0005388D01*
X-0022701Y0005444D01*
Y0005555D01*
X-0022673Y0005610D01*
X-0022618Y0005666D01*
X-0022562D01*
X-0022507Y0005610D01*
X-0022479Y0005555D01*
Y0005444D01*
X-0022507Y0005388D01*
X-0022562Y0005332D01*
X-0022618D01*
X-0022988D02*
X-0023043Y0005388D01*
X-0023071Y0005444D01*
Y0005555D01*
X-0023043Y0005610D01*
X-0022988Y0005666D01*
X-0022932D01*
X-0022877Y0005610D01*
X-0022849Y0005555D01*
Y0005444D01*
X-0022877Y0005388D01*
X-0022932Y0005332D01*
X-0022988D01*
X-0023219D02*
X-0023330D01*
X-0023274D02*
Y0005666D01*
X-0023330Y0005610D01*
X-0013654Y0003333D02*
X-0013877D01*
X-0013654Y0003555D01*
Y0003610D01*
X-0013682Y0003666D01*
X-0013849D01*
X-0013877Y0003610D01*
X-0014108Y0003499D02*
X-0014024Y0003333D01*
X-0014247Y0003499D02*
X-0014080D01*
X-0014024Y0003555D01*
Y0003610D01*
X-0014080Y0003666D01*
X-0014247D01*
Y0003333D01*
X-0013479Y0002332D02*
X-0013646Y0002499D01*
X-0013479Y0002666D01*
X-0013701D02*
Y0002332D01*
X-0013988D02*
X-0014043Y0002388D01*
X-0014071Y0002444D01*
Y0002555D01*
X-0014043Y0002610D01*
X-0013988Y0002666D01*
X-0013932D01*
X-0013877Y0002610D01*
X-0013849Y0002555D01*
Y0002444D01*
X-0013877Y0002388D01*
X-0013932Y0002332D01*
X-0013988D01*
X-0014219D02*
X-0014330D01*
X-0014274D02*
Y0002666D01*
X-0014330Y0002610D01*
X-0021780Y0003625D02*
Y0004375D01*
X-0023380D01*
Y0003625D01*
X-0021780D01*
X-0009780Y0002625D02*
Y0003375D01*
X-0011380D01*
Y0002625D01*
X-0009780D01*
X-0014780Y0010625D02*
Y0011375D01*
X-0016380D01*
Y0010625D01*
X-0014780D01*
X-0011780Y0009625D02*
Y0010375D01*
X-0013380D01*
Y0009625D01*
X-0011780D01*
X-0018780Y0010625D02*
Y0011375D01*
X-0020380D01*
Y0010625D01*
X-0018780D01*
X-0012780Y0002625D02*
Y0003375D01*
X-0014380D01*
Y0002625D01*
X-0012780D01*
X-0021780Y0005625D02*
Y0006375D01*
X-0023380D01*
Y0005625D01*
X-0021780D01*
X-0015780Y0002625D02*
Y0003375D01*
X-0017380D01*
Y0002625D01*
X-0015780D01*
G54D27*
G01X-0014885Y0006266D02*
X-0015060D01*
X-0014885Y0006441D01*
Y0006484D01*
X-0014907Y0006528D01*
X-0015038D01*
X-0015060Y0006484D01*
X-0015369Y0006266D02*
Y0006528D01*
X-0015391Y0006266D02*
X-0015260D01*
X-0015216Y0006353D01*
Y0006441D01*
X-0015260Y0006528D01*
X-0015391D01*
X-0014125Y0004872D02*
X-0014213D01*
X-0014169D02*
Y0005134D01*
X-0014213Y0005091D01*
X-0014412Y0004960D02*
X-0014587D01*
X-0014500Y0005134D01*
X-0014456D01*
Y0004872D01*
X-0014874D02*
X-0014743Y0005134D01*
X-0014918D01*
X-0015227Y0004872D02*
Y0005134D01*
X-0015249Y0004872D02*
X-0015118D01*
X-0015074Y0004960D01*
Y0005047D01*
X-0015118Y0005134D01*
X-0015249D01*
X-0015405Y0004960D02*
X-0015580D01*
X-0015405Y0004872D02*
Y0005003D01*
X-0015470Y0005134D01*
X-0015514D01*
X-0015580Y0005003D01*
Y0004872D01*
X-0019929Y0006266D02*
X-0020016D01*
X-0019973D02*
Y0006528D01*
X-0020016Y0006484D01*
X-0020369Y0006266D02*
Y0006528D01*
X-0020391Y0006266D02*
X-0020260D01*
X-0020216Y0006353D01*
Y0006441D01*
X-0020260Y0006528D01*
X-0020391D01*
X-0019125Y0004872D02*
X-0019213D01*
X-0019169D02*
Y0005134D01*
X-0019213Y0005091D01*
X-0019412Y0004960D02*
X-0019587D01*
X-0019500Y0005134D01*
X-0019456D01*
Y0004872D01*
X-0019874D02*
X-0019743Y0005134D01*
X-0019918D01*
X-0020227Y0004872D02*
Y0005134D01*
X-0020249Y0004872D02*
X-0020118D01*
X-0020074Y0004960D01*
Y0005047D01*
X-0020118Y0005134D01*
X-0020249D01*
X-0020405Y0004960D02*
X-0020580D01*
X-0020405Y0004872D02*
Y0005003D01*
X-0020470Y0005134D01*
X-0020514D01*
X-0020580Y0005003D01*
Y0004872D01*
G54D11*
X-0013000Y0010000D03*
X-0012160D03*
X-0016000Y0011000D03*
X-0015160D03*
X-0011000Y0003000D03*
X-0010160D03*
X-0014000D03*
X-0013160D03*
X-0020000Y0011000D03*
X-0019160D03*
X-0023000Y0006000D03*
X-0022160D03*
X-0023000Y0004000D03*
X-0022160D03*
X-0017000Y0003000D03*
X-0016160D03*
G54D12*
X-0014819Y0005787D03*
X-0014425D03*
X-0014032D03*
Y0007362D03*
X-0014425D03*
X-0014819D03*
X-0015213D03*
X-0019819Y0005787D03*
X-0019425D03*
X-0019032D03*
Y0007362D03*
X-0019425D03*
X-0019819D03*
X-0020213D03*
G54D13*
X-0015213Y0005787D03*
X-0020213D03*
G54D14*
X-0010000Y0006000D03*
Y0005000D03*
X-0025000Y0006000D03*
Y0007000D03*
G54D15*
X-0010000D03*
X-0025000Y0005000D03*
M02*
