%
T1C0.028F200S100
X-023000Y006750
X-021500Y008250
X-020250Y002500
X-019500Y003250
X-020250Y004750
X-019425Y004575
X-019250Y009500
X-019101Y008250
X-017500Y007750
X-016500Y004500
X-016250Y007500
X-016000Y009500
X-015319Y008750
X-014750Y003750
X-014656Y004519
X-013000Y008750
X-012250Y003500
X-011500Y008090
X-011000Y004000
X-011000Y005000
X-011000Y006000
T2C0.037F200S100
X-025000Y005000
X-025000Y006000
X-025000Y007000
X-010000Y005000
X-010000Y006000
X-010000Y007000
T3C0.137F200S100
X-028000Y002000
X-028000Y011000
X-007000Y002000
X-007000Y011000
M30
